<svg viewBox="0 0 800 1600" xmlns="http://www.w3.org/2000/svg">
  <defs>
    <radialGradient id="g" cx="50%" cy="30%" r="75%">
      <stop offset="0%" stop-color="#fff3d6"/>
      <stop offset="18%" stop-color="#f6cf7a"/>
      <stop offset="42%" stop-color="#a56ea0"/>
      <stop offset="70%" stop-color="#3c2f6b"/>
      <stop offset="100%" stop-color="#12102b"/>
    </radialGradient>
  </defs>
  <rect width="800" height="1600" fill="url(#g)"/>
  <g stroke="#fff3d6" stroke-width="2" opacity="0.35">
    <line x1="400" y1="480" x2="400" y2="60"/>
    <line x1="400" y1="480" x2="620" y2="140"/>
    <line x1="400" y1="480" x2="750" y2="330"/>
    <line x1="400" y1="480" x2="180" y2="140"/>
    <line x1="400" y1="480" x2="50" y2="330"/>
    <line x1="400" y1="480" x2="560" y2="90"/>
    <line x1="400" y1="480" x2="240" y2="90"/>
  </g>
  <circle cx="400" cy="480" r="120" fill="#fffaf0" opacity="0.9"/>
  <circle cx="400" cy="480" r="170" fill="#ffe9b3" opacity="0.35"/>
  <g fill="#ffffff">
    <circle cx="90" cy="120" r="2.2" opacity="0.8"/>
    <circle cx="150" cy="260" r="1.6" opacity="0.6"/>
    <circle cx="720" cy="150" r="2" opacity="0.7"/>
    <circle cx="660" cy="300" r="1.5" opacity="0.5"/>
    <circle cx="60" cy="650" r="1.8" opacity="0.6"/>
    <circle cx="740" cy="700" r="2" opacity="0.6"/>
    <circle cx="200" cy="900" r="1.4" opacity="0.5"/>
    <circle cx="600" cy="950" r="1.6" opacity="0.5"/>
    <circle cx="100" cy="1200" r="1.4" opacity="0.4"/>
    <circle cx="700" cy="1250" r="1.6" opacity="0.4"/>
    <circle cx="380" cy="1400" r="1.4" opacity="0.35"/>
  </g>
</svg>
