<svg viewBox="0 0 800 1600" xmlns="http://www.w3.org/2000/svg">
  <defs>
    <linearGradient id="g" x1="0" y1="0" x2="0" y2="1">
      <stop offset="0%" stop-color="#8fd3d8"/>
      <stop offset="30%" stop-color="#3c93a8"/>
      <stop offset="60%" stop-color="#1c5f7a"/>
      <stop offset="100%" stop-color="#0c2c42"/>
    </linearGradient>
    <linearGradient id="wall" x1="0" y1="0" x2="1" y2="0">
      <stop offset="0%" stop-color="#0d4a63"/>
      <stop offset="100%" stop-color="#146d8e"/>
    </linearGradient>
  </defs>
  <rect width="800" height="1600" fill="url(#g)"/>
  <path d="M0 500 Q40 300 0 60 L0 0 L300 0 Q260 400 280 900 Q260 1200 200 1600 L0 1600 Z" fill="url(#wall)" opacity="0.92"/>
  <path d="M800 500 Q760 300 800 60 L800 0 L500 0 Q540 400 520 900 Q540 1200 600 1600 L800 1600 Z" fill="url(#wall)" opacity="0.92"/>
  <g fill="#ffffff" opacity="0.5">
    <path d="M280 200 q20 40 0 80"/>
    <circle cx="270" cy="260" r="5"/>
    <circle cx="290" cy="420" r="4"/>
    <circle cx="260" cy="620" r="5"/>
    <circle cx="300" cy="820" r="4"/>
    <circle cx="520" cy="300" r="5"/>
    <circle cx="500" cy="500" r="4"/>
    <circle cx="530" cy="700" r="5"/>
    <circle cx="510" cy="900" r="4"/>
  </g>
  <path d="M300 1600 Q400 1250 500 1600 Z" fill="#d9c48a" opacity="0.85"/>
  <g fill="#8a7442" opacity="0.6">
    <ellipse cx="370" cy="1500" rx="10" ry="4"/>
    <ellipse cx="410" cy="1450" rx="10" ry="4"/>
    <ellipse cx="390" cy="1400" rx="10" ry="4"/>
    <ellipse cx="420" cy="1550" rx="10" ry="4"/>
  </g>
  <g fill="#e8f6f8" opacity="0.4">
    <circle cx="120" cy="90" r="2"/>
    <circle cx="650" cy="120" r="2"/>
    <circle cx="700" cy="200" r="1.5"/>
    <circle cx="80" cy="220" r="1.5"/>
  </g>
</svg>
